<?xml version="1.0" encoding="UTF-8" standalone="no"?>
<!DOCTYPE svg PUBLIC "-//W3C//DTD SVG 1.1//EN" "http://www.w3.org/Graphics/SVG/1.1/DTD/svg11.dtd">
<svg version="1.1" xmlns="http://www.w3.org/2000/svg" xmlns:xlink="http://www.w3.org/1999/xlink" preserveAspectRatio="xMidYMid meet" viewBox="0 0 640 640" width="640" height="640"><defs><path d="M166.8 12.29C168 4.4 175.37 -1.02 183.26 0.17C187.79 0.86 191.72 3.66 193.87 7.71C198.39 16.19 220.99 58.6 261.68 134.93L103.73 417.95C141.57 174.55 162.6 39.34 166.8 12.29ZM491.55 143.07C490.22 135.18 482.74 129.87 474.86 131.2C471.91 131.7 469.19 133.09 467.07 135.2C441.82 160.61 315.6 287.67 88.4 516.37C214.11 587.22 283.95 626.58 297.92 634.45C311.06 641.84 327.1 641.84 340.24 634.45C354.33 626.58 424.78 587.22 551.6 516.37C515.57 292.39 495.55 167.95 491.55 143.07ZM332.8 97.76C329.09 90.69 320.36 87.97 313.29 91.67C310.69 93.04 308.56 95.16 307.2 97.76C293 123.21 221.97 250.49 94.13 479.57L381.33 190.61C352.21 134.9 336.04 103.95 332.8 97.76Z" id="byel1RG7K"></path></defs><g><g><g><use xlink:href="#byel1RG7K" opacity="1" fill="#37393b" fill-opacity="1"></use><g><use xlink:href="#byel1RG7K" opacity="1" fill-opacity="0" stroke="#000000" stroke-width="1" stroke-opacity="0"></use></g></g></g></g></svg>